<svg xmlns="http://www.w3.org/2000/svg" height="40px" viewBox="0 -960 960 960" width="40px" fill="#FFFFFF"><path d="M531.83-508.17q21.5-21.5 21.5-51.83t-21.5-51.83q-21.5-21.5-51.83-21.5t-51.83 21.5q-21.5 21.5-21.5 51.83t21.5 51.83q21.5 21.5 51.83 21.5t51.83-21.5ZM480-168q129.33-118 191.33-214.17 62-96.16 62-169.83 0-115-73.5-188.17-73.5-73.16-179.83-73.16-106.33 0-179.83 73.16Q226.67-667 226.67-552q0 73.67 63 169.83Q352.67-286 480-168Zm0 88Q319-217 239.5-334.5T160-552q0-150 96.5-239T480-880q127 0 223.5 89T800-552q0 100-79.5 217.5T480-80Zm0-480Z"/></svg>